<svg xmlns="http://www.w3.org/2000/svg" width="256" height="256" viewBox="0 0 100 100"><rect width="100" height="100" rx="20" fill="#7d6ee7"></rect><path fill="#fff" d="M53.65 40.69L53.65 79.20Q53.20 79.39 52.30 79.61Q51.40 79.84 50.32 79.84L50.32 79.84Q46.45 79.84 46.45 76.59L46.45 76.59L46.45 37.99Q46.90 37.81 47.84 37.58Q48.79 37.36 49.87 37.36L49.87 37.36Q53.65 37.36 53.65 40.69L53.65 40.69ZM45.37 24.67L45.37 24.67Q45.37 22.78 46.67 21.47Q47.98 20.17 50.05 20.17L50.05 20.17Q52.12 20.17 53.38 21.47Q54.64 22.78 54.64 24.67L54.64 24.67Q54.64 26.56 53.38 27.86Q52.12 29.17 50.05 29.17L50.05 29.17Q47.98 29.17 46.67 27.86Q45.37 26.56 45.37 24.67Z"></path></svg>